<svg id="visual" viewBox="0 0 900 600" width="900" height="600" xmlns="http://www.w3.org/2000/svg" xmlns:xlink="http://www.w3.org/1999/xlink" version="1.1"><rect x="0" y="0" width="900" height="600" fill="#001220"></rect><defs><linearGradient id="grad1_0" x1="33.3%" y1="0%" x2="100%" y2="100%"><stop offset="20%" stop-color="#fbae3c" stop-opacity="1"></stop><stop offset="80%" stop-color="#fbae3c" stop-opacity="1"></stop></linearGradient></defs><defs><linearGradient id="grad1_1" x1="33.3%" y1="0%" x2="100%" y2="100%"><stop offset="20%" stop-color="#fbae3c" stop-opacity="1"></stop><stop offset="80%" stop-color="#f17c53" stop-opacity="1"></stop></linearGradient></defs><defs><linearGradient id="grad1_2" x1="33.3%" y1="0%" x2="100%" y2="100%"><stop offset="20%" stop-color="#cc5867" stop-opacity="1"></stop><stop offset="80%" stop-color="#f17c53" stop-opacity="1"></stop></linearGradient></defs><defs><linearGradient id="grad1_3" x1="33.3%" y1="0%" x2="100%" y2="100%"><stop offset="20%" stop-color="#cc5867" stop-opacity="1"></stop><stop offset="80%" stop-color="#96446e" stop-opacity="1"></stop></linearGradient></defs><defs><linearGradient id="grad1_4" x1="33.3%" y1="0%" x2="100%" y2="100%"><stop offset="20%" stop-color="#593762" stop-opacity="1"></stop><stop offset="80%" stop-color="#96446e" stop-opacity="1"></stop></linearGradient></defs><defs><linearGradient id="grad1_5" x1="33.3%" y1="0%" x2="100%" y2="100%"><stop offset="20%" stop-color="#593762" stop-opacity="1"></stop><stop offset="80%" stop-color="#232745" stop-opacity="1"></stop></linearGradient></defs><defs><linearGradient id="grad1_6" x1="33.3%" y1="0%" x2="100%" y2="100%"><stop offset="20%" stop-color="#001220" stop-opacity="1"></stop><stop offset="80%" stop-color="#232745" stop-opacity="1"></stop></linearGradient></defs><defs><linearGradient id="grad2_0" x1="0%" y1="0%" x2="66.7%" y2="100%"><stop offset="20%" stop-color="#fbae3c" stop-opacity="1"></stop><stop offset="80%" stop-color="#fbae3c" stop-opacity="1"></stop></linearGradient></defs><defs><linearGradient id="grad2_1" x1="0%" y1="0%" x2="66.7%" y2="100%"><stop offset="20%" stop-color="#f17c53" stop-opacity="1"></stop><stop offset="80%" stop-color="#fbae3c" stop-opacity="1"></stop></linearGradient></defs><defs><linearGradient id="grad2_2" x1="0%" y1="0%" x2="66.7%" y2="100%"><stop offset="20%" stop-color="#f17c53" stop-opacity="1"></stop><stop offset="80%" stop-color="#cc5867" stop-opacity="1"></stop></linearGradient></defs><defs><linearGradient id="grad2_3" x1="0%" y1="0%" x2="66.7%" y2="100%"><stop offset="20%" stop-color="#96446e" stop-opacity="1"></stop><stop offset="80%" stop-color="#cc5867" stop-opacity="1"></stop></linearGradient></defs><defs><linearGradient id="grad2_4" x1="0%" y1="0%" x2="66.7%" y2="100%"><stop offset="20%" stop-color="#96446e" stop-opacity="1"></stop><stop offset="80%" stop-color="#593762" stop-opacity="1"></stop></linearGradient></defs><defs><linearGradient id="grad2_5" x1="0%" y1="0%" x2="66.7%" y2="100%"><stop offset="20%" stop-color="#232745" stop-opacity="1"></stop><stop offset="80%" stop-color="#593762" stop-opacity="1"></stop></linearGradient></defs><defs><linearGradient id="grad2_6" x1="0%" y1="0%" x2="66.7%" y2="100%"><stop offset="20%" stop-color="#232745" stop-opacity="1"></stop><stop offset="80%" stop-color="#001220" stop-opacity="1"></stop></linearGradient></defs><g transform="translate(900, 0)"><path d="M0 513.8C-47.6 514.8 -95.1 515.8 -133 496.3C-170.8 476.8 -199 436.7 -239.5 414.8C-280 393 -332.8 389.3 -358.5 358.5C-384.2 327.7 -382.8 269.8 -392.3 226.5C-401.8 183.2 -422.3 154.4 -444.3 119.1C-466.4 83.7 -490.1 41.9 -513.8 0L0 0Z" fill="#0f1d33"></path><path d="M0 440.4C-40.8 441.3 -81.5 442.1 -114 425.4C-146.4 408.6 -170.6 374.3 -205.3 355.6C-240 336.8 -285.3 333.7 -307.3 307.3C-329.3 280.9 -328.1 231.3 -336.3 194.1C-344.4 157 -361.9 132.3 -380.9 102C-399.8 71.8 -420.1 35.9 -440.4 0L0 0Z" fill="#3d3056"></path><path d="M0 367C-34 367.7 -67.9 368.4 -95 354.5C-122 340.5 -142.2 311.9 -171.1 296.3C-200 280.7 -237.7 278.1 -256.1 256.1C-274.4 234.1 -273.4 192.7 -280.2 161.8C-287 130.8 -301.6 110.3 -317.4 85C-333.1 59.8 -350.1 29.9 -367 0L0 0Z" fill="#773d6b"></path><path d="M0 293.6C-27.2 294.2 -54.4 294.7 -76 283.6C-97.6 272.4 -113.7 249.5 -136.9 237C-160 224.5 -190.2 222.4 -204.9 204.9C-219.5 187.3 -218.7 154.2 -224.2 129.4C-229.6 104.7 -241.3 88.2 -253.9 68C-266.5 47.8 -280.1 23.9 -293.6 0L0 0Z" fill="#b34c6d"></path><path d="M0 220.2C-20.4 220.6 -40.8 221.1 -57 212.7C-73.2 204.3 -85.3 187.2 -102.6 177.8C-120 168.4 -142.6 166.8 -153.6 153.6C-164.7 140.5 -164.1 115.6 -168.1 97.1C-172.2 78.5 -181 66.2 -190.4 51C-199.9 35.9 -210 17.9 -220.2 0L0 0Z" fill="#e1685e"></path><path d="M0 146.8C-13.6 147.1 -27.2 147.4 -38 141.8C-48.8 136.2 -56.9 124.8 -68.4 118.5C-80 112.3 -95.1 111.2 -102.4 102.4C-109.8 93.6 -109.4 77.1 -112.1 64.7C-114.8 52.3 -120.6 44.1 -127 34C-133.3 23.9 -140 12 -146.8 0L0 0Z" fill="#f99447"></path><path d="M0 73.4C-6.8 73.5 -13.6 73.7 -19 70.9C-24.4 68.1 -28.4 62.4 -34.2 59.3C-40 56.1 -47.5 55.6 -51.2 51.2C-54.9 46.8 -54.7 38.5 -56 32.4C-57.4 26.2 -60.3 22.1 -63.5 17C-66.6 12 -70 6 -73.4 0L0 0Z" fill="#fbae3c"></path></g><g transform="translate(0, 600)"><path d="M0 -513.8C44.6 -504 89.2 -494.1 126 -470.4C162.9 -446.7 192 -409.1 220 -381.1C248 -353 274.8 -334.4 318.9 -318.9C363 -303.4 424.3 -291 445 -256.9C465.6 -222.8 445.4 -167 450.1 -120.6C454.8 -74.2 484.3 -37.1 513.8 0L0 0Z" fill="#0f1d33"></path><path d="M0 -440.4C38.2 -432 76.4 -423.5 108 -403.2C139.6 -382.9 164.6 -350.7 188.6 -326.6C212.6 -302.6 235.6 -286.6 273.3 -273.3C311.1 -260.1 363.7 -249.4 381.4 -220.2C399.1 -191 381.8 -143.2 385.8 -103.4C389.8 -63.6 415.1 -31.8 440.4 0L0 0Z" fill="#3d3056"></path><path d="M0 -367C31.9 -360 63.7 -352.9 90 -336C116.4 -319.1 137.2 -292.2 157.1 -272.2C177.1 -252.1 196.3 -238.9 227.8 -227.8C259.3 -216.7 303.1 -207.8 317.8 -183.5C332.5 -159.1 318.2 -119.3 321.5 -86.1C324.9 -53 345.9 -26.5 367 0L0 0Z" fill="#773d6b"></path><path d="M0 -293.6C25.5 -288 51 -282.3 72 -268.8C93.1 -255.3 109.7 -233.8 125.7 -217.7C141.7 -201.7 157 -191.1 182.2 -182.2C207.4 -173.4 242.5 -166.3 254.3 -146.8C266 -127.3 254.5 -95.5 257.2 -68.9C259.9 -42.4 276.7 -21.2 293.6 0L0 0Z" fill="#b34c6d"></path><path d="M0 -220.2C19.1 -216 38.2 -211.8 54 -201.6C69.8 -191.4 82.3 -175.3 94.3 -163.3C106.3 -151.3 117.8 -143.3 136.7 -136.7C155.6 -130 181.9 -124.7 190.7 -110.1C199.5 -95.5 190.9 -71.6 192.9 -51.7C194.9 -31.8 207.6 -15.9 220.2 0L0 0Z" fill="#e1685e"></path><path d="M0 -146.8C12.7 -144 25.5 -141.2 36 -134.4C46.5 -127.6 54.9 -116.9 62.9 -108.9C70.9 -100.9 78.5 -95.5 91.1 -91.1C103.7 -86.7 121.2 -83.1 127.1 -73.4C133 -63.7 127.3 -47.7 128.6 -34.5C129.9 -21.2 138.4 -10.6 146.8 0L0 0Z" fill="#f99447"></path><path d="M0 -73.4C6.4 -72 12.7 -70.6 18 -67.2C23.3 -63.8 27.4 -58.4 31.4 -54.4C35.4 -50.4 39.3 -47.8 45.6 -45.6C51.9 -43.3 60.6 -41.6 63.6 -36.7C66.5 -31.8 63.6 -23.9 64.3 -17.2C65 -10.6 69.2 -5.3 73.4 0L0 0Z" fill="#fbae3c"></path></g></svg>