<svg id="visual" viewBox="0 0 900 600" width="900" height="600" xmlns="http://www.w3.org/2000/svg" xmlns:xlink="http://www.w3.org/1999/xlink" version="1.1"><rect x="0" y="0" width="900" height="600" fill="#140021"></rect><path d="M0 271L113 271L113 209L225 209L225 184L338 184L338 248L450 248L450 161L563 161L563 230L675 230L675 190L788 190L788 253L900 253L900 264L900 601L900 601L788 601L788 601L675 601L675 601L563 601L563 601L450 601L450 601L338 601L338 601L225 601L225 601L113 601L113 601L0 601Z" fill="#9900ff"></path><path d="M0 273L113 273L113 299L225 299L225 306L338 306L338 226L450 226L450 302L563 302L563 299L675 299L675 234L788 234L788 320L900 320L900 272L900 601L900 601L788 601L788 601L675 601L675 601L563 601L563 601L450 601L450 601L338 601L338 601L225 601L225 601L113 601L113 601L0 601Z" fill="#8b00e8"></path><path d="M0 365L113 365L113 355L225 355L225 289L338 289L338 322L450 322L450 359L563 359L563 316L675 316L675 354L788 354L788 310L900 310L900 324L900 601L900 601L788 601L788 601L675 601L675 601L563 601L563 601L450 601L450 601L338 601L338 601L225 601L225 601L113 601L113 601L0 601Z" fill="#7e00d1"></path><path d="M0 357L113 357L113 393L225 393L225 382L338 382L338 415L450 415L450 365L563 365L563 356L675 356L675 431L788 431L788 434L900 434L900 432L900 601L900 601L788 601L788 601L675 601L675 601L563 601L563 601L450 601L450 601L338 601L338 601L225 601L225 601L113 601L113 601L0 601Z" fill="#7000bb"></path><path d="M0 472L113 472L113 474L225 474L225 437L338 437L338 465L450 465L450 460L563 460L563 443L675 443L675 435L788 435L788 426L900 426L900 483L900 601L900 601L788 601L788 601L675 601L675 601L563 601L563 601L450 601L450 601L338 601L338 601L225 601L225 601L113 601L113 601L0 601Z" fill="#6300a5"></path><path d="M0 529L113 529L113 551L225 551L225 545L338 545L338 493L450 493L450 504L563 504L563 509L675 509L675 552L788 552L788 532L900 532L900 515L900 601L900 601L788 601L788 601L675 601L675 601L563 601L563 601L450 601L450 601L338 601L338 601L225 601L225 601L113 601L113 601L0 601Z" fill="#560090"></path></svg>