<svg id="visual" viewBox="0 0 900 600" width="900" height="600" xmlns="http://www.w3.org/2000/svg" xmlns:xlink="http://www.w3.org/1999/xlink" version="1.1"><g stroke-width="1" stroke-linejoin="bevel"><path d="M475 288L499.5 362L561.5 381Z" fill="#00101c" stroke="#00101c"></path><path d="M561.5 381L598.5 209L475 288Z" fill="#00101c" stroke="#00101c"></path><path d="M561.5 381L697 276L598.5 209Z" fill="#19435d" stroke="#19435d"></path><path d="M427 558L622.5 452L561.5 381Z" fill="#297ea6" stroke="#297ea6"></path><path d="M561.5 381L622.5 452L697 276Z" fill="#277297" stroke="#277297"></path><path d="M527.5 130L408 209L475 288Z" fill="#112e42" stroke="#112e42"></path><path d="M475 288L398 439L499.5 362Z" fill="#15384f" stroke="#15384f"></path><path d="M726.5 235L715 250L790.5 244Z" fill="#297ea6" stroke="#297ea6"></path><path d="M697 276L715 250L598.5 209Z" fill="#15384f" stroke="#15384f"></path><path d="M690 57L527.5 130L598.5 209Z" fill="#19435d" stroke="#19435d"></path><path d="M598.5 209L527.5 130L475 288Z" fill="#00101c" stroke="#00101c"></path><path d="M790.5 244L715 250L697 276Z" fill="#205a7a" stroke="#205a7a"></path><path d="M715 250L726.5 235L598.5 209Z" fill="#19435d" stroke="#19435d"></path><path d="M408 209L365.5 238L475 288Z" fill="#15384f" stroke="#15384f"></path><path d="M310.5 358L398 439L475 288Z" fill="#19435d" stroke="#19435d"></path><path d="M499.5 362L398 439L561.5 381Z" fill="#246688" stroke="#246688"></path><path d="M561.5 0L497 94L527.5 130Z" fill="#00101c" stroke="#00101c"></path><path d="M527.5 130L497 94L408 209Z" fill="#1d4e6b" stroke="#1d4e6b"></path><path d="M408 209L303.5 214L365.5 238Z" fill="#081a28" stroke="#081a28"></path><path d="M622.5 452L724 437L697 276Z" fill="#00101c" stroke="#00101c"></path><path d="M549.5 600L633 521L622.5 452Z" fill="#205a7a" stroke="#205a7a"></path><path d="M622.5 452L633 521L724 437Z" fill="#081a28" stroke="#081a28"></path><path d="M805.5 368L790.5 244L697 276Z" fill="#277297" stroke="#277297"></path><path d="M726.5 235L690 57L598.5 209Z" fill="#277297" stroke="#277297"></path><path d="M365.5 238L310.5 358L475 288Z" fill="#1d4e6b" stroke="#1d4e6b"></path><path d="M900 396L805.5 368L900 517Z" fill="#205a7a" stroke="#205a7a"></path><path d="M724 437L805.5 368L697 276Z" fill="#246688" stroke="#246688"></path><path d="M294.5 143L303.5 214L408 209Z" fill="#1d4e6b" stroke="#1d4e6b"></path><path d="M365.5 238L274 239L310.5 358Z" fill="#081a28" stroke="#081a28"></path><path d="M362.5 600L427 558L304.5 555Z" fill="#112e42" stroke="#112e42"></path><path d="M398 439L427 558L561.5 381Z" fill="#205a7a" stroke="#205a7a"></path><path d="M841.5 48L690 57L726.5 235Z" fill="#00101c" stroke="#00101c"></path><path d="M303.5 214L274 239L365.5 238Z" fill="#1d4e6b" stroke="#1d4e6b"></path><path d="M427 558L549.5 600L622.5 452Z" fill="#112e42" stroke="#112e42"></path><path d="M633 521L676 600L724 437Z" fill="#297ea6" stroke="#297ea6"></path><path d="M497 94L294.5 143L408 209Z" fill="#297ea6" stroke="#297ea6"></path><path d="M303.5 214L243 192L274 239Z" fill="#00101c" stroke="#00101c"></path><path d="M237 359L279 438L310.5 358Z" fill="#00101c" stroke="#00101c"></path><path d="M310.5 358L279 438L398 439Z" fill="#19435d" stroke="#19435d"></path><path d="M690 57L561.5 0L527.5 130Z" fill="#00101c" stroke="#00101c"></path><path d="M497 94L305.5 0L294.5 143Z" fill="#277297" stroke="#277297"></path><path d="M561.5 0L512 0L497 94Z" fill="#112e42" stroke="#112e42"></path><path d="M362.5 600L451 600L427 558Z" fill="#297ea6" stroke="#297ea6"></path><path d="M427 558L451 600L549.5 600Z" fill="#19435d" stroke="#19435d"></path><path d="M274 239L237 359L310.5 358Z" fill="#205a7a" stroke="#205a7a"></path><path d="M144.5 304L237 359L274 239Z" fill="#0c2435" stroke="#0c2435"></path><path d="M549.5 600L676 600L633 521Z" fill="#081a28" stroke="#081a28"></path><path d="M294.5 143L243 192L303.5 214Z" fill="#277297" stroke="#277297"></path><path d="M690 57L701 0L561.5 0Z" fill="#277297" stroke="#277297"></path><path d="M744.5 0L701 0L690 57Z" fill="#297ea6" stroke="#297ea6"></path><path d="M900 396L900 319L805.5 368Z" fill="#277297" stroke="#277297"></path><path d="M805.5 368L900 319L790.5 244Z" fill="#0c2435" stroke="#0c2435"></path><path d="M841.5 48L744.5 0L690 57Z" fill="#205a7a" stroke="#205a7a"></path><path d="M304.5 555L398 439L279 438Z" fill="#19435d" stroke="#19435d"></path><path d="M304.5 555L427 558L398 439Z" fill="#246688" stroke="#246688"></path><path d="M224 600L304.5 555L279 438Z" fill="#0c2435" stroke="#0c2435"></path><path d="M900 319L900 221L790.5 244Z" fill="#15384f" stroke="#15384f"></path><path d="M841.5 48L726.5 235L790.5 244Z" fill="#15384f" stroke="#15384f"></path><path d="M843.5 548L805.5 368L724 437Z" fill="#277297" stroke="#277297"></path><path d="M900 221L900 158L790.5 244Z" fill="#0c2435" stroke="#0c2435"></path><path d="M676 600L843.5 548L724 437Z" fill="#112e42" stroke="#112e42"></path><path d="M174.5 89L199 153L294.5 143Z" fill="#246688" stroke="#246688"></path><path d="M294.5 143L199 153L243 192Z" fill="#297ea6" stroke="#297ea6"></path><path d="M243 192L144.5 304L274 239Z" fill="#246688" stroke="#246688"></path><path d="M900 158L841.5 48L790.5 244Z" fill="#15384f" stroke="#15384f"></path><path d="M512 0L305.5 0L497 94Z" fill="#277297" stroke="#277297"></path><path d="M676 600L827.5 600L843.5 548Z" fill="#15384f" stroke="#15384f"></path><path d="M843.5 548L900 517L805.5 368Z" fill="#19435d" stroke="#19435d"></path><path d="M155.5 193L144.5 304L243 192Z" fill="#1d4e6b" stroke="#1d4e6b"></path><path d="M132.5 550L224 600L279 438Z" fill="#277297" stroke="#277297"></path><path d="M900 600L900 517L843.5 548Z" fill="#112e42" stroke="#112e42"></path><path d="M174.5 89L155.5 193L199 153Z" fill="#297ea6" stroke="#297ea6"></path><path d="M199 153L155.5 193L243 192Z" fill="#15384f" stroke="#15384f"></path><path d="M224 0L174.5 89L294.5 143Z" fill="#19435d" stroke="#19435d"></path><path d="M132.5 550L279 438L84.5 455Z" fill="#1d4e6b" stroke="#1d4e6b"></path><path d="M304.5 555L224 600L362.5 600Z" fill="#246688" stroke="#246688"></path><path d="M305.5 0L224 0L294.5 143Z" fill="#205a7a" stroke="#205a7a"></path><path d="M827.5 600L900 600L843.5 548Z" fill="#112e42" stroke="#112e42"></path><path d="M900 158L900 0L841.5 48Z" fill="#1d4e6b" stroke="#1d4e6b"></path><path d="M841.5 48L900 0L744.5 0Z" fill="#15384f" stroke="#15384f"></path><path d="M84.5 455L279 438L237 359Z" fill="#15384f" stroke="#15384f"></path><path d="M0 446L84.5 455L144.5 304Z" fill="#19435d" stroke="#19435d"></path><path d="M144.5 304L84.5 455L237 359Z" fill="#15384f" stroke="#15384f"></path><path d="M0 249L144.5 304L155.5 193Z" fill="#00101c" stroke="#00101c"></path><path d="M0 600L141.5 600L132.5 550Z" fill="#297ea6" stroke="#297ea6"></path><path d="M132.5 550L141.5 600L224 600Z" fill="#081a28" stroke="#081a28"></path><path d="M224 0L104.5 0L174.5 89Z" fill="#19435d" stroke="#19435d"></path><path d="M0 123L0 162L155.5 193Z" fill="#297ea6" stroke="#297ea6"></path><path d="M0 162L0 249L155.5 193Z" fill="#277297" stroke="#277297"></path><path d="M84.5 455L0 472L132.5 550Z" fill="#0c2435" stroke="#0c2435"></path><path d="M0 123L155.5 193L174.5 89Z" fill="#246688" stroke="#246688"></path><path d="M0 249L0 446L144.5 304Z" fill="#112e42" stroke="#112e42"></path><path d="M0 446L0 472L84.5 455Z" fill="#00101c" stroke="#00101c"></path><path d="M104.5 0L0 123L174.5 89Z" fill="#297ea6" stroke="#297ea6"></path><path d="M0 472L0 600L132.5 550Z" fill="#081a28" stroke="#081a28"></path><path d="M104.5 0L0 0L0 123Z" fill="#081a28" stroke="#081a28"></path></g></svg>