<svg id="visual" viewBox="0 0 900 600" width="900" height="600" xmlns="http://www.w3.org/2000/svg" xmlns:xlink="http://www.w3.org/1999/xlink" version="1.1"><path d="M728 600L629 600L629 545L512 545L512 491L611 491L611 436L647 436L647 382L539 382L539 327L593 327L593 273L701 273L701 218L746 218L746 164L602 164L602 109L629 109L629 55L710 55L710 0L900 0L900 55L900 55L900 109L900 109L900 164L900 164L900 218L900 218L900 273L900 273L900 327L900 327L900 382L900 382L900 436L900 436L900 491L900 491L900 545L900 545L900 600L900 600Z" fill="#fa7268"></path><path d="M530 600L449 600L449 545L260 545L260 491L485 491L485 436L404 436L404 382L377 382L377 327L467 327L467 273L494 273L494 218L665 218L665 164L422 164L422 109L449 109L449 55L629 55L629 0L711 0L711 55L630 55L630 109L603 109L603 164L747 164L747 218L702 218L702 273L594 273L594 327L540 327L540 382L648 382L648 436L612 436L612 491L513 491L513 545L630 545L630 600L729 600Z" fill="#ea5e66"></path><path d="M206 600L170 600L170 545L134 545L134 491L260 491L260 436L197 436L197 382L197 382L197 327L179 327L179 273L233 273L233 218L251 218L251 164L233 164L233 109L260 109L260 55L287 55L287 0L630 0L630 55L450 55L450 109L423 109L423 164L666 164L666 218L495 218L495 273L468 273L468 327L378 327L378 382L405 382L405 436L486 436L486 491L261 491L261 545L450 545L450 600L531 600Z" fill="#d84a64"></path><path d="M143 600L62 600L62 545L62 545L62 491L125 491L125 436L107 436L107 382L134 382L134 327L80 327L80 273L134 273L134 218L125 218L125 164L107 164L107 109L107 109L107 55L143 55L143 0L288 0L288 55L261 55L261 109L234 109L234 164L252 164L252 218L234 218L234 273L180 273L180 327L198 327L198 382L198 382L198 436L261 436L261 491L135 491L135 545L171 545L171 600L207 600Z" fill="#c53762"></path><path d="M0 600L0 600L0 545L0 545L0 491L0 491L0 436L0 436L0 382L0 382L0 327L0 327L0 273L0 273L0 218L0 218L0 164L0 164L0 109L0 109L0 55L0 55L0 0L144 0L144 55L108 55L108 109L108 109L108 164L126 164L126 218L135 218L135 273L81 273L81 327L135 327L135 382L108 382L108 436L126 436L126 491L63 491L63 545L63 545L63 600L144 600Z" fill="#b0235f"></path></svg>